<?xml version="1.0" encoding="UTF-8"?>
<svg width="12px" height="18px" viewBox="0 0 12 18" version="1.1" xmlns="http://www.w3.org/2000/svg" xmlns:xlink="http://www.w3.org/1999/xlink">
    <title>chevron-right</title>
    <g id="chevron-right" stroke="none" stroke-width="1" fill="none" fill-rule="evenodd">
        <path d="M3.6328125,15.14875 C3.8515625,15.14875 4.03645833,15.0758333 4.1875,14.93 L4.1875,14.93 L9.984375,9.2503125 C10.078125,9.16697917 10.1445312,9.07713542 10.1835938,8.98078125 C10.2226562,8.88442708 10.2421875,8.77895833 10.2421875,8.664375 C10.2421875,8.54979167 10.2226562,8.44432292 10.1835938,8.34796875 C10.1445312,8.25161458 10.078125,8.16177083 9.984375,8.0784375 L9.984375,8.0784375 L4.1875,2.39875 C4.03645833,2.25291667 3.8515625,2.18 3.6328125,2.18 C3.48697917,2.18 3.35416667,2.21255208 3.234375,2.27765625 C3.11458333,2.34276042 3.01953125,2.43520833 2.94921875,2.555 C2.87890625,2.67479167 2.84375,2.80760417 2.84375,2.9534375 C2.84375,3.16697917 2.92447917,3.35447917 3.0859375,3.5159375 L3.0859375,3.5159375 L8.359375,8.664375 L3.0859375,13.8128125 C2.92447917,13.9742708 2.84375,14.1617708 2.84375,14.3753125 C2.84375,14.5159375 2.87890625,14.6474479 2.94921875,14.7698438 C3.01953125,14.8922396 3.11458333,14.9859896 3.234375,15.0510938 C3.35416667,15.1161979 3.48697917,15.14875 3.6328125,15.14875 Z" id="Chevron" fill="#FFFFFF" fill-rule="nonzero"></path>
    </g>
</svg>