<?xml version="1.0" encoding="UTF-8"?>
<svg width="196px" height="196px" viewBox="0 0 196 196" version="1.1" xmlns="http://www.w3.org/2000/svg" xmlns:xlink="http://www.w3.org/1999/xlink">
    <title>PhoneWidget Icon@1x</title>
    <defs>
        <path d="M54.803046,0 L137.196954,0 C156.253167,0 163.16341,1.98414744 170.130077,5.70996154 C177.096744,9.43577565 182.564225,14.9032564 186.290039,21.8699231 C190.015852,28.8365898 192,35.7468331 192,54.803046 L192,137.196954 C192,156.253167 190.015852,163.16341 186.290039,170.130077 C182.564225,177.096744 177.096744,182.564225 170.130077,186.290039 C163.16341,190.015852 156.253167,192 137.196954,192 L54.803046,192 C35.7468331,192 28.8365898,190.015852 21.8699231,186.290039 C14.9032564,182.564225 9.43577565,177.096744 5.70996154,170.130077 C1.98414744,163.16341 0,156.253167 0,137.196954 L0,54.803046 C0,35.7468331 1.98414744,28.8365898 5.70996154,21.8699231 C9.43577565,14.9032564 14.9032564,9.43577565 21.8699231,5.70996154 C28.8365898,1.98414744 35.7468331,0 54.803046,0 Z" id="path-1"></path>
        <linearGradient x1="50%" y1="0%" x2="50%" y2="100%" id="linearGradient-3">
            <stop stop-color="#55E66F" offset="0%"></stop>
            <stop stop-color="#0BBB28" offset="100%"></stop>
        </linearGradient>
    </defs>
    <g id="Page-1" stroke="none" stroke-width="1" fill="none" fill-rule="evenodd">
        <g id="Desktop-Copy" transform="translate(-254.000000, -227.000000)">
            <g id="Phone-Widget" transform="translate(0.000000, 102.000000)">
                <g id="Icon-+-Name" transform="translate(96.000000, 127.000000)">
                    <g id="PhoneWidget-Icon@1x" transform="translate(160.000000, 0.000000)">
                        <mask id="mask-2" fill="white">
                            <use xlink:href="#path-1"></use>
                        </mask>
                        <path stroke-opacity="0.05" stroke="#000000" stroke-width="2" d="M137.196954,-1 C156.100909,-1 163.213031,0.959028558 170.128049,4.57753068 L170.128049,4.57753068 L170.601676,4.82814834 C177.745189,8.64854079 183.351459,14.2548114 187.173932,21.4022352 L187.173932,21.4022352 L187.4246,21.8760002 C187.588981,22.1901352 187.749937,22.5046858 187.90744,22.8207405 L188.141103,23.2960867 C191.299005,29.8116214 193,37.1879974 193,54.803046 L193,54.803046 L193,137.196954 C193,156.100909 191.040971,163.213031 187.422469,170.128049 L187.422469,170.128049 L187.171852,170.601676 C183.351459,177.745189 177.745189,183.351459 170.597765,187.173932 L170.597765,187.173932 L170.124,187.4246 C169.809865,187.588981 169.495314,187.749937 169.179259,187.90744 L168.703913,188.141103 C162.188378,191.299005 154.812003,193 137.196954,193 L137.196954,193 L54.803046,193 C35.8990914,193 28.7869692,191.040971 21.8719511,187.422469 L21.8719511,187.422469 L21.3983242,187.171852 C14.2548114,183.351459 8.64854079,177.745189 4.82606785,170.597765 L4.82606785,170.597765 L4.57540004,170.124 C0.999840884,163.291024 -0.95554436,156.261321 -0.999248868,137.834724 L-0.999248868,137.834724 L-1,54.803046 C-1,35.8990914 0.95902856,28.7869692 4.57753068,21.8719511 L4.57753068,21.8719511 L4.82814834,21.3983242 C8.64854079,14.2548114 14.2548114,8.64854079 21.4022352,4.82606785 L21.4022352,4.82606785 L21.8760002,4.57540005 C28.7089759,0.999840886 35.7386786,-0.95554436 54.1652756,-0.999248868 L54.1652756,-0.999248868 Z"></path>
                        <g id="Icon" mask="url(#mask-2)" fill-rule="nonzero">
                            <rect id="Background" fill="url(#linearGradient-3)" x="0" y="0" width="192" height="192"></rect>
                            <path d="M134.463047,34.1601562 C133.994297,28.359375 130.302891,25.1367188 124.150547,25.1367188 L67.6661719,25.1367188 C61.5138281,25.1367188 57.8224219,28.359375 57.3536719,34.1601562 L134.463047,34.1601562 Z M146.006016,52.6757812 C145.302891,46.640625 141.904453,42.9492188 134.873203,42.9492188 L56.3575781,42.9492188 C49.3263281,42.9492188 45.9278906,46.640625 45.2247656,52.6757812 L146.006016,52.6757812 Z M139.267734,62.6367188 C152.744297,62.6367188 160.185703,70.0195312 160.185703,83.4375 L160.185703,83.4375 L160.185703,146.25 C160.185703,159.667969 152.744297,167.050781 139.267734,167.050781 L139.267734,167.050781 L51.7872656,167.050781 C38.3107031,167.050781 30.8692968,159.667969 30.8692968,146.25 L30.8692968,146.25 L30.8692968,83.4375 C30.8692968,70.0195312 38.3107031,62.6367188 51.7872656,62.6367188 L51.7872656,62.6367188 L139.267734,62.6367188 Z M74.4213866,83.8520509 C72.1142576,83.8520509 69.8730469,84.8078614 67.8625489,86.6865233 C64.4348145,89.8505858 62.9187011,93.8056643 62.9187011,98.2221679 C62.9187011,108.20874 70.6311034,120.337647 80.7824708,130.456055 C90.900879,140.640381 103.128662,148.385742 113.082275,148.385742 C117.531738,148.385742 121.453857,146.869629 124.61792,143.375977 C126.430664,141.33252 127.452393,139.05835 127.452393,136.751221 C127.452393,134.773682 126.694336,132.89502 124.815674,131.543701 L114.631348,124.292725 C112.95044,123.106201 111.566162,122.578857 110.313721,122.578857 C108.69873,122.578857 107.281494,123.501709 105.732422,125.050781 L103.260498,127.489746 C102.897949,127.885254 102.403565,128.01709 101.975098,128.01709 C101.447754,128.01709 100.887451,127.819336 100.524902,127.621582 C98.4155272,126.435058 94.724121,123.270996 91.3623045,119.876221 C88.0004884,116.514404 84.8364259,112.855957 83.6499022,110.713623 C83.4191895,110.351074 83.2214355,109.82373 83.2214355,109.296387 C83.2214355,108.86792 83.3862304,108.406494 83.7487792,108.010986 L86.2207031,105.539063 C87.7697753,103.957031 88.692627,102.539795 88.692627,100.924805 C88.692627,99.6723634 88.1323241,98.2880858 86.9458009,96.6401366 L79.7277833,86.4887696 C78.4094239,84.6430665 76.4648438,83.8520509 74.4213866,83.8520509 Z" id="Regular" fill="#FFFFFF"></path>
                        </g>
                    </g>
                </g>
            </g>
        </g>
    </g>
</svg>