<?xml version="1.0" encoding="UTF-8"?>
<svg width="38px" height="38px" viewBox="0 0 38 38" version="1.1" xmlns="http://www.w3.org/2000/svg" xmlns:xlink="http://www.w3.org/1999/xlink">
    <title>PhoneWidget Icon@1x Copy</title>
    <defs>
        <path d="M10.2755711,0 L25.7244289,0 C29.2974688,0 30.5931394,0.372027645 31.8993894,1.07061779 C33.2056394,1.76920793 34.2307921,2.79436058 34.9293822,4.10061058 C35.6279723,5.40686058 36,6.7025312 36,10.2755711 L36,25.7244289 C36,29.2974688 35.6279723,30.5931394 34.9293822,31.8993894 C34.2307921,33.2056394 33.2056394,34.2307921 31.8993894,34.9293822 C30.5931394,35.6279723 29.2974688,36 25.7244289,36 L10.2755711,36 C6.7025312,36 5.40686058,35.6279723 4.10061058,34.9293822 C2.79436058,34.2307921 1.76920793,33.2056394 1.07061779,31.8993894 C0.372027645,30.5931394 0,29.2974688 0,25.7244289 L0,10.2755711 C0,6.7025312 0.372027645,5.40686058 1.07061779,4.10061058 C1.76920793,2.79436058 2.79436058,1.76920793 4.10061058,1.07061779 C5.40686058,0.372027645 6.7025312,0 10.2755711,0 Z" id="path-1"></path>
        <linearGradient x1="50%" y1="0%" x2="50%" y2="100%" id="linearGradient-3">
            <stop stop-color="#55E66F" offset="0%"></stop>
            <stop stop-color="#0BBB28" offset="100%"></stop>
        </linearGradient>
    </defs>
    <g id="Page-1" stroke="none" stroke-width="1" fill="none" fill-rule="evenodd">
        <g id="Desktop" transform="translate(-493.000000, -270.000000)">
            <g id="PhoneWidget-Icon@1x-Copy" transform="translate(494.000000, 271.000000)">
                <mask id="mask-2" fill="white">
                    <use xlink:href="#path-1"></use>
                </mask>
                <path stroke-opacity="0.75" stroke="#FFFFFF" stroke-width="0.5" d="M25.7244289,-0.25 C29.3682681,-0.25 30.6860986,0.138236028 32.0172891,0.850164488 C33.3677507,1.57239922 34.4276008,2.63224933 35.1498355,3.98271087 C35.861764,5.31390135 36.25,6.6317319 36.25,10.2755711 L36.25,10.2755711 L36.25,25.7244289 C36.25,29.3682681 35.861764,30.6860986 35.1498355,32.0172891 C34.4276008,33.3677507 33.3677507,34.4276008 32.0172891,35.1498355 C30.6860986,35.861764 29.3682681,36.25 25.7244289,36.25 L25.7244289,36.25 L10.2755711,36.25 C6.6317319,36.25 5.31390135,35.861764 3.98271087,35.1498355 C2.63224933,34.4276008 1.57239922,33.3677507 0.850164488,32.0172891 C0.138236028,30.6860986 -0.25,29.3682681 -0.25,25.7244289 L-0.25,25.7244289 L-0.25,10.2755711 C-0.25,6.6317319 0.138236029,5.31390135 0.850164489,3.98271086 C1.57239922,2.63224933 2.63224933,1.57239922 3.98271086,0.850164489 C5.31390135,0.138236029 6.6317319,-0.25 10.2755711,-0.25 L10.2755711,-0.25 L25.7244289,-0.25 Z"></path>
                <g id="Icon" mask="url(#mask-2)" fill-rule="nonzero">
                    <rect id="Background" fill="url(#linearGradient-3)" x="0" y="0" width="36" height="36"></rect>
                    <path d="M25.2118213,6.4050293 C25.1239307,5.31738281 24.431792,4.71313477 23.2782275,4.71313477 L12.6874072,4.71313477 C11.5338428,4.71313477 10.8417041,5.31738281 10.7538135,6.4050293 L25.2118213,6.4050293 Z M27.3761279,9.87670898 C27.244292,8.74511719 26.607085,8.05297852 25.2887256,8.05297852 L10.5670459,8.05297852 C9.24868652,8.05297852 8.61147949,8.74511719 8.47964355,9.87670898 L27.3761279,9.87670898 Z M26.1127002,11.7443848 C28.6395557,11.7443848 30.0348193,13.1286621 30.0348193,15.6445312 L30.0348193,15.6445312 L30.0348193,27.421875 C30.0348193,29.9377441 28.6395557,31.3220215 26.1127002,31.3220215 L26.1127002,31.3220215 L9.7101123,31.3220215 C7.18325684,31.3220215 5.78799316,29.9377441 5.78799316,27.421875 L5.78799316,27.421875 L5.78799316,15.6445312 C5.78799316,13.1286621 7.18325684,11.7443848 9.7101123,11.7443848 L9.7101123,11.7443848 L26.1127002,11.7443848 Z M13.95401,15.7222595 C13.5214233,15.7222595 13.1011963,15.901474 12.7242279,16.2537231 C12.0815277,16.8469848 11.7972565,17.588562 11.7972565,18.4166565 C11.7972565,20.2891388 13.2433319,22.5633087 15.1467133,24.4605102 C17.0439148,26.3700714 19.3366242,27.8223266 21.2029266,27.8223266 C22.0372009,27.8223266 22.7725983,27.5380554 23.36586,26.8829956 C23.7057495,26.4998474 23.8973236,26.0734406 23.8973236,25.6408539 C23.8973236,25.2700653 23.755188,24.9178162 23.4029389,24.664444 L21.4933777,23.3048859 C21.1782074,23.0824127 20.9186554,22.9835358 20.6838226,22.9835358 C20.3810119,22.9835358 20.1152801,23.1565705 19.8248291,23.4470215 L19.3613434,23.9043274 C19.2933655,23.9784851 19.2006683,24.0032043 19.1203308,24.0032043 C19.0214539,24.0032043 18.9163971,23.9661255 18.8484192,23.9290466 C18.4529114,23.7065735 17.7607727,23.1133117 17.1304321,22.4767914 C16.5000916,21.8464508 15.9068299,21.160492 15.6843567,20.7588043 C15.641098,20.6908264 15.6040192,20.5919494 15.6040192,20.4930725 C15.6040192,20.412735 15.6349182,20.3262176 15.7028961,20.2520599 L16.1663818,19.7885742 C16.4568329,19.4919434 16.6298676,19.2262115 16.6298676,18.9234008 C16.6298676,18.6885681 16.5248108,18.4290161 16.3023377,18.1200256 L14.9489594,16.2166443 C14.701767,15.870575 14.3371582,15.7222595 13.95401,15.7222595 Z" id="Regular" fill="#FFFFFF"></path>
                </g>
            </g>
        </g>
    </g>
</svg>