<?xml version="1.0" encoding="UTF-8"?>
<svg width="261px" height="176px" viewBox="0 0 261 176" version="1.1" xmlns="http://www.w3.org/2000/svg" xmlns:xlink="http://www.w3.org/1999/xlink">
    <title>privacy-lock-muted</title>
    <g id="privacy-lock-muted" stroke="none" stroke-width="1" fill="none" fill-rule="evenodd">
        <path d="M150.392578,130.881953 C155.888672,130.881953 158.595703,128.174922 158.595703,122.186641 L158.595703,91.4659375 C158.595703,86.051875 156.380859,83.3038281 151.787109,82.8526562 L151.787109,72.7217969 C151.787109,57.1358594 141.410156,49.63 130.5,49.63 C119.589844,49.63 109.212891,57.1358594 109.212891,72.7217969 L109.212891,82.9757031 C104.947266,83.6319531 102.404297,86.3389844 102.404297,91.4659375 L102.404297,122.186641 C102.404297,128.174922 105.111328,130.881953 110.607422,130.881953 L150.392578,130.881953 Z M117.087891,82.8116406 L117.087891,71.9835156 C117.087891,62.426875 123.158203,57.176875 130.5,57.176875 C137.800781,57.176875 143.912109,62.426875 143.912109,71.9835156 L143.912109,82.770625 L117.087891,82.8116406 Z" id="Lock" fill="#6C757D" fill-rule="nonzero"></path>
    </g>
</svg>