<?xml version="1.0" encoding="UTF-8"?>
<svg width="196px" height="196px" viewBox="0 0 196 196" version="1.1" xmlns="http://www.w3.org/2000/svg" xmlns:xlink="http://www.w3.org/1999/xlink">
    <title>Taxcon Website</title>
    <defs>
        <path d="M54.803046,-2.21410866e-15 L137.196954,-2.21410866e-15 C156.253167,-2.21410866e-15 163.16341,1.98414744 170.130077,5.70996154 C177.096744,9.43577565 182.564225,14.9032564 186.290039,21.8699231 C190.015852,28.8365898 192,35.7468331 192,54.803046 L192,137.196954 C192,156.253167 190.015852,163.16341 186.290039,170.130077 C182.564225,177.096744 177.096744,182.564225 170.130077,186.290039 C163.16341,190.015852 156.253167,192 137.196954,192 L54.803046,192 C35.7468331,192 28.8365898,190.015852 21.8699231,186.290039 C14.9032564,182.564225 9.43577565,177.096744 5.70996154,170.130077 C1.98414744,163.16341 -1.47607244e-15,156.253167 -1.47607244e-15,137.196954 L-1.47607244e-15,54.803046 C-1.47607244e-15,35.7468331 1.98414744,28.8365898 5.70996154,21.8699231 C9.43577565,14.9032564 14.9032564,9.43577565 21.8699231,5.70996154 C28.8365898,1.98414744 35.7468331,-2.21410866e-15 54.803046,-2.21410866e-15 Z" id="path-1"></path>
        <radialGradient cx="0%" cy="0%" fx="0%" fy="0%" r="141.421356%" id="radialGradient-3">
            <stop stop-color="#144D9F" offset="0%"></stop>
            <stop stop-color="#00337F" offset="100%"></stop>
        </radialGradient>
    </defs>
    <g id="Page-1" stroke="none" stroke-width="1" fill="none" fill-rule="evenodd">
        <g id="Desktop-Copy" transform="translate(-254.000000, -891.000000)">
            <g id="Taxcon" transform="translate(0.000000, 766.000000)">
                <g id="Icon-+-Name" transform="translate(96.000000, 127.000000)">
                    <g id="Clipped" transform="translate(160.000000, 0.000000)">
                        <mask id="mask-2" fill="white">
                            <use xlink:href="#path-1"></use>
                        </mask>
                        <path stroke-opacity="0.05" stroke="#000000" stroke-width="2" d="M137.196954,-1 C156.100909,-1 163.213031,0.959028558 170.128049,4.57753068 L170.128049,4.57753068 L170.601676,4.82814834 C177.745189,8.64854079 183.351459,14.2548114 187.173932,21.4022352 L187.173932,21.4022352 L187.4246,21.8760002 C187.588981,22.1901352 187.749937,22.5046858 187.90744,22.8207405 L188.141103,23.2960867 C191.299005,29.8116214 193,37.1879974 193,54.803046 L193,54.803046 L193,137.196954 C193,156.100909 191.040971,163.213031 187.422469,170.128049 L187.422469,170.128049 L187.171852,170.601676 C183.351459,177.745189 177.745189,183.351459 170.597765,187.173932 L170.597765,187.173932 L170.124,187.4246 C169.809865,187.588981 169.495314,187.749937 169.179259,187.90744 L168.703913,188.141103 C162.188378,191.299005 154.812003,193 137.196954,193 L137.196954,193 L54.803046,193 C35.8990914,193 28.7869692,191.040971 21.8719511,187.422469 L21.8719511,187.422469 L21.3983242,187.171852 C14.2548114,183.351459 8.64854079,177.745189 4.82606785,170.597765 L4.82606785,170.597765 L4.57540004,170.124 C0.999840884,163.291024 -0.95554436,156.261321 -0.999248868,137.834724 L-0.999248868,137.834724 L-1,54.803046 C-1,35.8990914 0.95902856,28.7869692 4.57753068,21.8719511 L4.57753068,21.8719511 L4.82814834,21.3983242 C8.64854079,14.2548114 14.2548114,8.64854079 21.4022352,4.82606785 L21.4022352,4.82606785 L21.8760002,4.57540005 C28.7089759,0.999840886 35.7386786,-0.95554436 54.1652756,-0.999248868 L54.1652756,-0.999248868 Z"></path>
                        <g id="Group" mask="url(#mask-2)">
                            <rect id="Background" fill="url(#radialGradient-3)" fill-rule="nonzero" x="0" y="0" width="192" height="192"></rect>
                            <g id="Bottom-right" transform="translate(96.000000, 96.000000)" fill-rule="nonzero">
                                <rect id="Container" fill-opacity="0.3" fill="#000000" x="0" y="0" width="96" height="96"></rect>
                                <path d="M55.1542969,67.198242 C57.442383,67.198242 60.0527344,66.9404295 61.5029295,66.5214844 L61.5029295,59.6894531 C60.0527344,60.0117188 57.442383,60.2050781 55.3476562,60.2050781 C47.9355469,60.2050781 42.4248045,57.1435545 40.3945312,50.698242 L57.9257812,50.698242 L57.9257812,47.25 L39.6855469,47.25 C39.588867,46.4443357 39.5566406,45.5742188 39.5566406,44.671875 L39.5566406,44.6074219 C39.5566406,43.6083983 39.6210938,42.6738281 39.7177733,41.7714844 L57.9257812,41.7714844 L57.9257812,38.323242 L40.4589844,38.323242 C42.5537108,32.0068359 48.0322267,29.0097656 55.3476562,29.0097656 C57.442383,29.0097656 60.0527344,29.2353516 61.5029295,29.5253906 L61.5029295,22.6933594 C60.0527344,22.2744141 57.442383,22.0166016 55.1542969,22.0166016 C43.520508,22.0166016 34.4326172,27.3662109 32.015625,38.323242 L25.6025391,38.323242 L25.6025391,41.7714844 L31.4677734,41.7714844 C31.4033203,42.6738281 31.3388672,43.6083983 31.3388672,44.5429688 L31.3388672,44.6074219 C31.3388672,45.5097656 31.4033203,46.4121094 31.4677734,47.25 L25.6025391,47.25 L25.6025391,50.698242 L31.9833984,50.698242 C34.3359375,61.7519531 43.4238281,67.198242 55.1542969,67.198242 Z" id="€" fill="#FFFFFF"></path>
                            </g>
                            <g id="Bottom-left" transform="translate(0.000000, 96.000000)">
                                <rect id="Top-left-container" fill-opacity="0.2" fill="#000000" fill-rule="nonzero" x="0" y="0" width="96" height="96"></rect>
                                <g id="order" transform="translate(26.250000, 21.375000)">
                                    <path d="M7.05978263,40.5 L7.05978263,0 L47.2663042,0 L47.2663042,40.5 C47.2663042,45.47025 43.2657555,49.5 38.3315216,49.5" id="Path" stroke="#FFFFFF" stroke-width="4.90909091" stroke-linecap="round" stroke-linejoin="round"></path>
                                    <path d="M29.3967391,40.5 L29.3967391,40.5 L0.358695653,40.5 L0.358695653,40.5 C0.358695653,45.47025 4.35924457,49.5 9.29347826,49.5 L38.3315216,49.5 C33.3972881,49.5 29.3967391,45.47025 29.3967391,40.5 Z" id="Path" stroke="#FFFFFF" stroke-width="4.90909091" stroke-linecap="round" stroke-linejoin="round"></path>
                                    <line x1="24.9293478" y1="20.25" x2="38.3315216" y2="20.25" id="Path" stroke="#FFFFFF" stroke-width="4.90909091" stroke-linejoin="round"></line>
                                    <line x1="15.9945652" y1="20.25" x2="20.4619565" y2="20.25" id="Path" stroke="#FFFFFF" stroke-width="4.90909091" stroke-linejoin="round"></line>
                                    <line x1="24.9293478" y1="29.25" x2="38.3315216" y2="29.25" id="Path" stroke="#FFFFFF" stroke-width="4.90909091" stroke-linejoin="round"></line>
                                    <line x1="15.9945652" y1="29.25" x2="20.4619565" y2="29.25" id="Path" stroke="#FFFFFF" stroke-width="4.90909091" stroke-linejoin="round"></line>
                                    <line x1="24.9293478" y1="11.25" x2="38.3315216" y2="11.25" id="Path" stroke="#FFFFFF" stroke-width="4.90909091" stroke-linejoin="round"></line>
                                    <line x1="15.9945652" y1="11.25" x2="20.4619565" y2="11.25" id="Path" stroke="#FFFFFF" stroke-width="4.90909091" stroke-linejoin="round"></line>
                                    <path d="M29.3967391,40.5 L29.3967391,40.5 L0.358695653,40.5 L0.358695653,40.5 C0.358695653,45.47025 4.35924457,49.5 9.29347826,49.5 L38.3315216,49.5 C33.3972881,49.5 29.3967391,45.47025 29.3967391,40.5 Z" id="Path" fill="#FFFFFF" fill-rule="nonzero"></path>
                                </g>
                            </g>
                            <g id="Top-right" transform="translate(96.000000, 0.000000)" fill-rule="nonzero">
                                <rect id="Top-left-container" fill-opacity="0.1" fill="#000000" x="0" y="0" width="96" height="96"></rect>
                                <path d="M33.3339844,52.4619143 C39.7148438,52.4619143 43.5820312,47.8535156 43.5820312,40.473633 L43.5820312,40.4414062 C43.5820312,33.0615234 39.7148438,28.453125 33.3339844,28.453125 C26.9208984,28.453125 23.0214844,33.0615234 23.0214844,40.4414062 L23.0214844,40.473633 C23.0214844,47.8535156 26.9208984,52.4619143 33.3339844,52.4619143 Z M37.1367188,75.375 L66.65625,28.8720703 L60.2109375,28.8720703 L30.6269531,75.375 L37.1367188,75.375 Z M33.3339844,47.6279295 C30.5302734,47.6279295 28.9511719,45.0498045 28.9511719,40.473633 L28.9511719,40.4414062 C28.9511719,35.8652344 30.5302734,33.2871094 33.3339844,33.2871094 C36.1054688,33.2871094 37.6523438,35.8652344 37.6523438,40.4414062 L37.6523438,40.473633 C37.6523438,45.0498045 36.1054688,47.6279295 33.3339844,47.6279295 Z M63.9814455,75.7939455 C70.3623045,75.7939455 74.2617188,71.1855469 74.2617188,63.7734375 L74.2617188,63.7412108 C74.2617188,56.3935545 70.3623045,51.7851562 63.9814455,51.7851562 C57.6005858,51.7851562 53.7011719,56.3935545 53.7011719,63.7412108 L53.7011719,63.7734375 C53.7011719,71.1855469 57.6005858,75.7939455 63.9814455,75.7939455 Z M63.9814455,70.9599608 C61.1777344,70.9599608 59.598633,68.3818358 59.598633,63.8056643 L59.598633,63.7734375 C59.598633,59.1972656 61.1777344,56.6191406 63.9814455,56.6191406 C66.7529295,56.6191406 68.3320312,59.1972656 68.3320312,63.7734375 L68.3320312,63.8056643 C68.3320312,68.3818358 66.7529295,70.9599608 63.9814455,70.9599608 Z" id="%" fill="#FFFFFF"></path>
                            </g>
                            <g id="Top-left" transform="translate(32.250000, 24.000000)" fill="#FFFFFF" fill-rule="nonzero">
                                <path d="M19.1835938,56.0478517 L19.1835938,50.6337892 C27.8847656,50.1181642 34.3623045,45.4775392 34.3623045,37.4853517 L34.3623045,37.4208983 C34.3623045,30.5244142 29.8828125,26.9472656 21.1494142,24.9814455 L19.1835938,24.5625 L19.1835938,12.0908203 C23.1796875,12.5742188 25.7900392,14.765625 26.2734375,18.2783205 L26.3056642,18.5683594 L33.8144531,18.5683594 L33.7822267,18.0527344 C33.2021483,10.8339844 27.5302733,6.19335938 19.1835938,5.61328125 L19.1835938,0.19921875 L15.703125,0.19921875 L15.703125,5.61328125 C7.098633,6.16113281 1.13671875,11.0595703 1.13671875,18.375 L1.13671875,18.4394531 C1.13671875,25.1103517 5.51953125,28.9453125 13.8984375,30.8144531 L15.703125,31.2011719 L15.703125,44.1884767 C10.708008,43.6728517 8.45214825,41.1914062 7.8720705,37.96875 L7.807617,37.614258 L0.298828125,37.614258 L0.331054688,38.0654295 C0.846679688,45.5097656 7.06640625,50.1181642 15.703125,50.6337892 L15.703125,56.0478517 L19.1835938,56.0478517 Z M15.703125,23.7890625 C10.7724608,22.661133 8.9033205,20.6953125 8.9033205,17.859375 L8.9033205,17.8271483 C8.9033205,15.0556642 11.223633,12.5419922 15.703125,12.0585938 L15.703125,23.7890625 Z M19.1835938,44.2207031 L19.1835938,31.9746094 C24.9521483,33.2958983 26.6279295,35.1005858 26.6279295,38.129883 L26.6279295,38.1943358 C26.6279295,41.3847656 24.4365233,43.8339844 19.1835938,44.2207031 Z" id="$"></path>
                            </g>
                        </g>
                    </g>
                </g>
            </g>
        </g>
    </g>
</svg>