<?xml version="1.0" encoding="UTF-8"?>
<svg width="38px" height="38px" viewBox="0 0 38 38" version="1.1" xmlns="http://www.w3.org/2000/svg" xmlns:xlink="http://www.w3.org/1999/xlink">
    <title>Taxcon Website</title>
    <defs>
        <path d="M10.2755711,-4.15145373e-16 L25.7244289,-4.15145373e-16 C29.2974688,-4.15145373e-16 30.5931394,0.372027645 31.8993894,1.07061779 C33.2056394,1.76920793 34.2307921,2.79436058 34.9293822,4.10061058 C35.6279723,5.40686058 36,6.7025312 36,10.2755711 L36,25.7244289 C36,29.2974688 35.6279723,30.5931394 34.9293822,31.8993894 C34.2307921,33.2056394 33.2056394,34.2307921 31.8993894,34.9293822 C30.5931394,35.6279723 29.2974688,36 25.7244289,36 L10.2755711,36 C6.7025312,36 5.40686058,35.6279723 4.10061058,34.9293822 C2.79436058,34.2307921 1.76920793,33.2056394 1.07061779,31.8993894 C0.372027645,30.5931394 -2.76763582e-16,29.2974688 -2.76763582e-16,25.7244289 L-2.76763582e-16,10.2755711 C-2.76763582e-16,6.7025312 0.372027645,5.40686058 1.07061779,4.10061058 C1.76920793,2.79436058 2.79436058,1.76920793 4.10061058,1.07061779 C5.40686058,0.372027645 6.7025312,-4.15145373e-16 10.2755711,-4.15145373e-16 Z" id="path-1"></path>
        <radialGradient cx="0%" cy="0%" fx="0%" fy="0%" r="141.421356%" id="radialGradient-3">
            <stop stop-color="#144D9F" offset="0%"></stop>
            <stop stop-color="#00337F" offset="100%"></stop>
        </radialGradient>
    </defs>
    <g id="Page-1" stroke="none" stroke-width="1" fill="none" fill-rule="evenodd">
        <g id="Desktop" transform="translate(-493.000000, -349.000000)">
            <g id="Taxcon-Top" transform="translate(0.000000, 344.000000)">
                <g id="Clipped" transform="translate(494.000000, 6.000000)">
                    <mask id="mask-2" fill="white">
                        <use xlink:href="#path-1"></use>
                    </mask>
                    <path stroke-opacity="0.75" stroke="#000000" stroke-width="0.5" d="M25.7244289,-0.25 C29.3682681,-0.25 30.6860986,0.138236028 32.0172891,0.850164488 C33.3677507,1.57239922 34.4276008,2.63224933 35.1498355,3.98271087 C35.861764,5.31390135 36.25,6.6317319 36.25,10.2755711 L36.25,10.2755711 L36.25,25.7244289 C36.25,29.3682681 35.861764,30.6860986 35.1498355,32.0172891 C34.4276008,33.3677507 33.3677507,34.4276008 32.0172891,35.1498355 C30.6860986,35.861764 29.3682681,36.25 25.7244289,36.25 L25.7244289,36.25 L10.2755711,36.25 C6.6317319,36.25 5.31390135,35.861764 3.98271087,35.1498355 C2.63224933,34.4276008 1.57239922,33.3677507 0.850164488,32.0172891 C0.138236028,30.6860986 -0.25,29.3682681 -0.25,25.7244289 L-0.25,25.7244289 L-0.25,10.2755711 C-0.25,6.6317319 0.138236029,5.31390135 0.850164489,3.98271086 C1.57239922,2.63224933 2.63224933,1.57239922 3.98271086,0.850164489 C5.31390135,0.138236029 6.6317319,-0.25 10.2755711,-0.25 L10.2755711,-0.25 Z"></path>
                    <g id="Group" mask="url(#mask-2)">
                        <rect id="Background" fill="url(#radialGradient-3)" fill-rule="nonzero" x="0" y="0" width="36" height="36"></rect>
                        <g id="Bottom-right" transform="translate(18.000000, 18.000000)" fill-rule="nonzero">
                            <rect id="Container" fill-opacity="0.3" fill="#000000" x="0" y="0" width="18" height="18"></rect>
                            <path d="M10.3414307,12.5996704 C10.7704468,12.5996704 11.2598877,12.5513305 11.5317993,12.4727783 L11.5317993,11.1917725 C11.2598877,11.2521973 10.7704468,11.2884521 10.3776855,11.2884521 C8.98791504,11.2884521 7.95465084,10.7144165 7.57397461,9.50592038 L10.861084,9.50592038 L10.861084,8.859375 L7.44104004,8.859375 C7.42291256,8.70831295 7.41687012,8.54516602 7.41687012,8.37597656 L7.41687012,8.3638916 C7.41687012,8.17657467 7.42895508,8.00134277 7.44708248,7.83215332 L10.861084,7.83215332 L10.861084,7.18560788 L7.58605957,7.18560788 C7.97882077,6.00128174 9.00604252,5.43933105 10.3776855,5.43933105 C10.7704468,5.43933105 11.2598877,5.48162842 11.5317993,5.53601074 L11.5317993,4.25500488 C11.2598877,4.17645264 10.7704468,4.12811279 10.3414307,4.12811279 C8.16009525,4.12811279 6.45611572,5.13116455 6.00292969,7.18560788 L4.80047607,7.18560788 L4.80047607,7.83215332 L5.90020752,7.83215332 C5.88812256,8.00134277 5.8760376,8.17657467 5.8760376,8.35180664 L5.8760376,8.3638916 C5.8760376,8.53308105 5.88812256,8.70227051 5.90020752,8.859375 L4.80047607,8.859375 L4.80047607,9.50592038 L5.99688721,9.50592038 C6.43798828,11.5784912 8.14196777,12.5996704 10.3414307,12.5996704 Z" id="€" fill="#FFFFFF"></path>
                        </g>
                        <g id="Bottom-left" transform="translate(0.000000, 18.000000)">
                            <rect id="Top-left-container" fill-opacity="0.2" fill="#000000" fill-rule="nonzero" x="0" y="0" width="18" height="18"></rect>
                            <g id="order" transform="translate(4.921875, 4.007812)">
                                <path d="M1.32370924,7.59375 L1.32370924,0 L8.86243205,0 L8.86243205,7.59375 C8.86243205,8.52567188 8.11232916,9.28125 7.1871603,9.28125" id="Path" stroke="#FFFFFF" stroke-width="0.920454546" stroke-linecap="round" stroke-linejoin="round"></path>
                                <path d="M5.51188858,7.59375 L5.51188858,7.59375 L0.0672554348,7.59375 L0.0672554348,7.59375 C0.0672554348,8.52567188 0.817358358,9.28125 1.74252717,9.28125 L7.1871603,9.28125 C6.26199151,9.28125 5.51188858,8.52567188 5.51188858,7.59375 Z" id="Path" stroke="#FFFFFF" stroke-width="0.920454546" stroke-linecap="round" stroke-linejoin="round"></path>
                                <line x1="4.67425272" y1="3.81171875" x2="7.1871603" y2="3.81171875" id="Path" stroke="#FFFFFF" stroke-width="0.920454546" stroke-linejoin="round"></line>
                                <line x1="2.99898098" y1="3.81171875" x2="3.83661685" y2="3.81171875" id="Path" stroke="#FFFFFF" stroke-width="0.920454546" stroke-linejoin="round"></line>
                                <line x1="4.67425272" y1="5.49921875" x2="7.1871603" y2="5.49921875" id="Path" stroke="#FFFFFF" stroke-width="0.920454546" stroke-linejoin="round"></line>
                                <line x1="2.99898098" y1="5.49921875" x2="3.83661685" y2="5.49921875" id="Path" stroke="#FFFFFF" stroke-width="0.920454546" stroke-linejoin="round"></line>
                                <line x1="4.67425272" y1="2.12421875" x2="7.1871603" y2="2.12421875" id="Path" stroke="#FFFFFF" stroke-width="0.920454546" stroke-linejoin="round"></line>
                                <line x1="2.99898098" y1="2.12421875" x2="3.83661685" y2="2.12421875" id="Path" stroke="#FFFFFF" stroke-width="0.920454546" stroke-linejoin="round"></line>
                                <path d="M5.51188858,7.59375 L5.51188858,7.59375 L0.0672554348,7.59375 L0.0672554348,7.59375 C0.0672554348,8.52567188 0.817358358,9.28125 1.74252717,9.28125 L7.1871603,9.28125 C6.26199151,9.28125 5.51188858,8.52567188 5.51188858,7.59375 Z" id="Path" fill="#FFFFFF" fill-rule="nonzero"></path>
                            </g>
                        </g>
                        <g id="Top-right" transform="translate(18.000000, 0.000000)" fill-rule="nonzero">
                            <rect id="Top-left-container" fill-opacity="0.1" fill="#000000" x="0" y="0" width="18" height="18"></rect>
                            <path d="M6.25012207,9.83660892 C7.4465332,9.83660892 8.17163086,8.97253418 8.17163086,7.58880619 L8.17163086,7.58276367 C8.17163086,6.19903564 7.4465332,5.33496094 6.25012207,5.33496094 C5.04766846,5.33496094 4.31652832,6.19903564 4.31652832,7.58276367 L4.31652832,7.58880619 C4.31652832,8.97253418 5.04766846,9.83660892 6.25012207,9.83660892 Z M6.96313477,14.1328125 L12.4980469,5.41351318 L11.2895508,5.41351318 L5.74255371,14.1328125 L6.96313477,14.1328125 Z M6.25012207,8.93023678 C5.72442627,8.93023678 5.42834473,8.44683834 5.42834473,7.58880619 L5.42834473,7.58276367 C5.42834473,6.72473145 5.72442627,6.24133301 6.25012207,6.24133301 C6.76977539,6.24133301 7.05981445,6.72473145 7.05981445,7.58276367 L7.05981445,7.58880619 C7.05981445,8.44683834 6.76977539,8.93023678 6.25012207,8.93023678 Z M11.996521,14.2113648 C13.1929321,14.2113648 13.9240723,13.34729 13.9240723,11.9575195 L13.9240723,11.951477 C13.9240723,10.5737915 13.1929321,9.7097168 11.996521,9.7097168 C10.8001098,9.7097168 10.0689697,10.5737915 10.0689697,11.951477 L10.0689697,11.9575195 C10.0689697,13.34729 10.8001098,14.2113648 11.996521,14.2113648 Z M11.996521,13.3049926 C11.4708252,13.3049926 11.1747437,12.8215942 11.1747437,11.963562 L11.1747437,11.9575195 C11.1747437,11.0994873 11.4708252,10.6160889 11.996521,10.6160889 C12.5161743,10.6160889 12.8122559,11.0994873 12.8122559,11.9575195 L12.8122559,11.963562 C12.8122559,12.8215942 12.5161743,13.3049926 11.996521,13.3049926 Z" id="%" fill="#FFFFFF"></path>
                        </g>
                        <g id="Top-left" transform="translate(6.046875, 4.500000)" fill="#FFFFFF" fill-rule="nonzero">
                            <path d="M3.59692383,10.5089722 L3.59692383,9.49383548 C5.22839355,9.3971558 6.44293209,8.52703861 6.44293209,7.02850345 L6.44293209,7.01641842 C6.44293209,5.72332767 5.60302734,5.0526123 3.96551517,4.68402103 L3.59692383,4.60546875 L3.59692383,2.26702881 C4.34619141,2.35766602 4.83563236,2.76855469 4.92626953,3.42718509 L4.93231205,3.48156738 L6.34020996,3.48156738 L6.33416752,3.3848877 C6.2254028,2.03137207 5.16192623,1.16125488 3.59692383,1.05249023 L3.59692383,0.0373535156 L2.94433594,0.0373535156 L2.94433594,1.05249023 C1.33099369,1.1552124 0.213134766,2.07366943 0.213134766,3.4453125 L0.213134766,3.45739746 C0.213134766,4.70819095 1.03491211,5.42724609 2.60595703,5.77770996 L2.94433594,5.85021973 L2.94433594,8.28533939 C2.0077515,8.1886597 1.5847778,7.72338867 1.47601322,7.11914062 L1.46392819,7.05267338 L0.0560302734,7.05267338 L0.0620727539,7.13726803 C0.158752441,8.53308105 1.32495117,9.3971558 2.94433594,9.49383548 L2.94433594,10.5089722 L3.59692383,10.5089722 Z M2.94433594,4.46044922 C2.01983639,4.24896244 1.66937259,3.88037109 1.66937259,3.34863281 L1.66937259,3.3425903 C1.66937259,2.82293705 2.10443119,2.35162354 2.94433594,2.26098633 L2.94433594,4.46044922 Z M3.59692383,8.29138184 L3.59692383,5.99523926 C4.6785278,6.24298092 4.99273678,6.58135983 4.99273678,7.14935306 L4.99273678,7.16143795 C4.99273678,7.75964355 4.58184811,8.21887207 3.59692383,8.29138184 Z" id="$"></path>
                        </g>
                    </g>
                </g>
            </g>
        </g>
    </g>
</svg>