<?xml version="1.0" encoding="UTF-8"?>
<svg width="261px" height="176px" viewBox="0 0 261 176" version="1.1" xmlns="http://www.w3.org/2000/svg" xmlns:xlink="http://www.w3.org/1999/xlink">
    <title>unlimited-logo</title>
    <defs>
        <linearGradient x1="0%" y1="48.6435112%" x2="100%" y2="51.3564888%" id="linearGradient-1">
            <stop stop-color="#55E66F" offset="0%"></stop>
            <stop stop-color="#0BBB28" offset="100%"></stop>
        </linearGradient>
    </defs>
    <g id="unlimited-logo" stroke="none" stroke-width="1" fill="none" fill-rule="evenodd">
        <path d="M14.792,72 L14.792,96.864 C14.792,97.9466667 14.8853333,99.0106667 15.072,100.056 C15.2586667,101.101333 15.6506667,102.025333 16.248,102.828 C16.8453333,103.630667 17.676,104.284 18.74,104.788 C19.804,105.292 21.232,105.544 23.024,105.544 C26.16,105.544 28.3253333,104.844 29.52,103.444 C30.7146667,102.044 31.312,99.8506667 31.312,96.864 L31.312,96.864 L31.312,72 L40.104,72 L40.104,96.864 C40.104,102.277333 38.592,106.3 35.568,108.932 C32.544,111.564 28.3626667,112.88 23.024,112.88 C17.6106667,112.88 13.42,111.573333 10.452,108.96 C7.484,106.346667 6,102.314667 6,96.864 L6,96.864 L6,72 L14.792,72 Z M207.208,82.248 C209.672,82.248 211.818667,82.724 213.648,83.676 C215.477333,84.628 216.98,85.9066667 218.156,87.512 C219.332,89.1173333 220.181333,90.9466667 220.704,93 C221.226667,95.0533333 221.413333,97.2 221.264,99.44 L221.264,99.44 L200.376,99.44 C200.488,102.016 201.141333,103.882667 202.336,105.04 C203.530667,106.197333 205.248,106.776 207.488,106.776 C209.093333,106.776 210.474667,106.374667 211.632,105.572 C212.789333,104.769333 213.498667,103.92 213.76,103.024 L213.76,103.024 L220.76,103.024 C219.64,106.496 217.922667,108.978667 215.608,110.472 C213.293333,111.965333 210.493333,112.712 207.208,112.712 C204.930667,112.712 202.877333,112.348 201.048,111.62 C199.218667,110.892 197.669333,109.856 196.4,108.512 C195.130667,107.168 194.150667,105.562667 193.46,103.696 C192.769333,101.829333 192.424,99.776 192.424,97.536 C192.424,95.3706667 192.778667,93.3546667 193.488,91.488 C194.197333,89.6213333 195.205333,88.0066667 196.512,86.644 C197.818667,85.2813333 199.377333,84.208 201.188,83.424 C202.998667,82.64 205.005333,82.248 207.208,82.248 Z M254.192,72 L254.192,111.984 L246.632,111.984 L246.632,108.288 L246.52,108.288 C245.586667,109.856 244.364,110.985333 242.852,111.676 C241.34,112.366667 239.632,112.712 237.728,112.712 C235.562667,112.712 233.658667,112.292 232.016,111.452 C230.373333,110.612 229.02,109.473333 227.956,108.036 C226.892,106.598667 226.089333,104.946667 225.548,103.08 C225.006667,101.213333 224.736,99.272 224.736,97.256 C224.736,95.3146667 225.006667,93.4386667 225.548,91.628 C226.089333,89.8173333 226.892,88.2213333 227.956,86.84 C229.02,85.4586667 230.354667,84.348 231.96,83.508 C233.565333,82.668 235.432,82.248 237.56,82.248 C239.277333,82.248 240.910667,82.612 242.46,83.34 C244.009333,84.068 245.232,85.1413333 246.128,86.56 L246.128,86.56 L246.24,86.56 L246.24,72 L254.192,72 Z M184.192,74.352 L184.192,83.032 L190.016,83.032 L190.016,88.352 L184.192,88.352 L184.192,102.688 C184.192,104.032 184.416,104.928 184.864,105.376 C185.312,105.824 186.208,106.048 187.552,106.048 C188,106.048 188.429333,106.029333 188.84,105.992 C189.250667,105.954667 189.642667,105.898667 190.016,105.824 L190.016,105.824 L190.016,111.984 C189.344,112.096 188.597333,112.170667 187.776,112.208 C186.954667,112.245333 186.152,112.264 185.368,112.264 C184.136,112.264 182.969333,112.18 181.868,112.012 C180.766667,111.844 179.796,111.517333 178.956,111.032 C178.116,110.546667 177.453333,109.856 176.968,108.96 C176.482667,108.064 176.24,106.888 176.24,105.432 L176.24,105.432 L176.24,88.352 L171.424,88.352 L171.424,83.032 L176.24,83.032 L176.24,74.352 L184.192,74.352 Z M63.4,82.248 C65.528,82.248 67.2733333,82.5373333 68.636,83.116 C69.9986667,83.6946667 71.072,84.4973333 71.856,85.524 C72.64,86.5506667 73.1906667,87.8013333 73.508,89.276 C73.8253333,90.7506667 73.984,92.384 73.984,94.176 L73.984,94.176 L73.984,111.984 L66.032,111.984 L66.032,95.632 C66.032,93.2426667 65.6586667,91.46 64.912,90.284 C64.1653333,89.108 62.84,88.52 60.936,88.52 C58.7706667,88.52 57.2026667,89.164 56.232,90.452 C55.2613333,91.74 54.776,93.8586667 54.776,96.808 L54.776,96.808 L54.776,111.984 L46.824,111.984 L46.824,83.032 L54.384,83.032 L54.384,87.064 L54.552,87.064 C55.56,85.384 56.8666667,84.1613333 58.472,83.396 C60.0773333,82.6306667 61.72,82.248 63.4,82.248 Z M88.208,72 L88.208,111.984 L80.256,111.984 L80.256,72 L88.208,72 Z M102.656,83.032 L102.656,111.984 L94.704,111.984 L94.704,83.032 L102.656,83.032 Z M142.808,82.248 C144.338667,82.248 145.757333,82.4346667 147.064,82.808 C148.370667,83.1813333 149.490667,83.7786667 150.424,84.6 C151.357333,85.4213333 152.085333,86.4946667 152.608,87.82 C153.130667,89.1453333 153.392,90.7413333 153.392,92.608 L153.392,92.608 L153.392,111.984 L145.44,111.984 L145.44,95.576 C145.44,94.6053333 145.402667,93.6906667 145.328,92.832 C145.253333,91.9733333 145.048,91.2266667 144.712,90.592 C144.376,89.9573333 143.881333,89.4533333 143.228,89.08 C142.574667,88.7066667 141.688,88.52 140.568,88.52 C139.448,88.52 138.542667,88.7346667 137.852,89.164 C137.161333,89.5933333 136.62,90.1533333 136.228,90.844 C135.836,91.5346667 135.574667,92.3186667 135.444,93.196 C135.313333,94.0733333 135.248,94.96 135.248,95.856 L135.248,95.856 L135.248,111.984 L127.296,111.984 L127.296,95.744 C127.296,94.8853333 127.277333,94.036 127.24,93.196 C127.202667,92.356 127.044,91.5813333 126.764,90.872 C126.484,90.1626667 126.017333,89.5933333 125.364,89.164 C124.710667,88.7346667 123.749333,88.52 122.48,88.52 C122.106667,88.52 121.612,88.604 120.996,88.772 C120.38,88.94 119.782667,89.2573333 119.204,89.724 C118.625333,90.1906667 118.130667,90.8626667 117.72,91.74 C117.309333,92.6173333 117.104,93.7653333 117.104,95.184 L117.104,95.184 L117.104,111.984 L109.152,111.984 L109.152,83.032 L116.656,83.032 L116.656,86.952 L116.768,86.952 C117.813333,85.4586667 119.073333,84.3013333 120.548,83.48 C122.022667,82.6586667 123.712,82.248 125.616,82.248 C127.445333,82.248 129.116,82.6026667 130.628,83.312 C132.14,84.0213333 133.288,85.272 134.072,87.064 C134.930667,85.7946667 136.097333,84.6746667 137.572,83.704 C139.046667,82.7333333 140.792,82.248 142.808,82.248 Z M167.84,83.032 L167.84,111.984 L159.888,111.984 L159.888,83.032 L167.84,83.032 Z M239.688,88.24 C238.381333,88.24 237.28,88.5013333 236.384,89.024 C235.488,89.5466667 234.769333,90.2373333 234.228,91.096 C233.686667,91.9546667 233.294667,92.9346667 233.052,94.036 C232.809333,95.1373333 232.688,96.2853333 232.688,97.48 C232.688,98.6 232.818667,99.72 233.08,100.84 C233.341333,101.96 233.761333,102.958667 234.34,103.836 C234.918667,104.713333 235.646667,105.422667 236.524,105.964 C237.401333,106.505333 238.456,106.776 239.688,106.776 C240.994667,106.776 242.086667,106.514667 242.964,105.992 C243.841333,105.469333 244.541333,104.769333 245.064,103.892 C245.586667,103.014667 245.96,102.016 246.184,100.896 C246.408,99.776 246.52,98.6186667 246.52,97.424 C246.52,96.2293333 246.408,95.0813333 246.184,93.98 C245.96,92.8786667 245.577333,91.908 245.036,91.068 C244.494667,90.228 243.794667,89.5466667 242.936,89.024 C242.077333,88.5013333 240.994667,88.24 239.688,88.24 Z M206.984,88.24 C205.714667,88.24 204.66,88.4546667 203.82,88.884 C202.98,89.3133333 202.308,89.8453333 201.804,90.48 C201.3,91.1146667 200.945333,91.7866667 200.74,92.496 C200.534667,93.2053333 200.413333,93.84 200.376,94.4 L200.376,94.4 L213.312,94.4 C212.938667,92.384 212.276,90.8533333 211.324,89.808 C210.372,88.7626667 208.925333,88.24 206.984,88.24 Z M102.656,72 L102.656,78.552 L94.704,78.552 L94.704,72 L102.656,72 Z M167.84,72 L167.84,78.552 L159.888,78.552 L159.888,72 L167.84,72 Z" id="Unlimited" fill="url(#linearGradient-1)"></path>
    </g>
</svg>